<svg width="640" height="640" viewBox="0 0 640 640" fill="none" xmlns="http://www.w3.org/2000/svg">
<path d="M120.346 303.38V89.88H192.326V247.565H288.706V303.38H120.346Z" fill="white"/>
<path d="M400.393 308.26C382.5 308.26 365.216 306.227 348.543 302.16C331.87 298.093 318.145 292.807 307.368 286.3L330.548 233.84C340.715 239.737 352 244.515 364.403 248.175C377.01 251.632 389.21 253.36 401.003 253.36C407.916 253.36 413.305 252.953 417.168 252.14C421.235 251.123 424.183 249.802 426.013 248.175C427.843 246.345 428.758 244.21 428.758 241.77C428.758 237.907 426.623 234.857 422.353 232.62C418.083 230.383 412.39 228.553 405.273 227.13C398.36 225.503 390.735 223.877 382.398 222.25C374.061 220.42 365.623 218.082 357.083 215.235C348.746 212.388 341.02 208.627 333.903 203.95C326.99 199.273 321.398 193.173 317.128 185.65C312.858 177.923 310.723 168.367 310.723 156.98C310.723 143.763 314.383 131.767 321.703 120.99C329.226 110.01 340.308 101.267 354.948 94.76C369.791 88.2533 388.193 85 410.153 85C424.59 85 438.823 86.525 452.853 89.575C466.883 92.625 479.49 97.3017 490.673 103.605L469.018 155.76C458.445 150.473 448.176 146.508 438.213 143.865C428.453 141.222 418.896 139.9 409.543 139.9C402.63 139.9 397.14 140.51 393.073 141.73C389.006 142.95 386.058 144.577 384.228 146.61C382.601 148.643 381.788 150.88 381.788 153.32C381.788 156.98 383.923 159.928 388.193 162.165C392.463 164.198 398.055 165.927 404.968 167.35C412.085 168.773 419.811 170.298 428.148 171.925C436.688 173.552 445.126 175.788 453.463 178.635C461.8 181.482 469.425 185.243 476.338 189.92C483.455 194.597 489.148 200.697 493.418 208.22C497.688 215.743 499.823 225.097 499.823 236.28C499.823 249.293 496.061 261.29 488.538 272.27C481.218 283.047 470.238 291.79 455.598 298.5C440.958 305.007 422.556 308.26 400.393 308.26Z" fill="white"/>
<path d="M199.951 555.26C182.057 555.26 164.774 553.227 148.101 549.16C131.427 545.093 117.702 539.807 106.926 533.3L130.106 480.84C140.272 486.737 151.557 491.515 163.961 495.175C176.567 498.632 188.767 500.36 200.561 500.36C207.474 500.36 212.862 499.953 216.726 499.14C220.792 498.123 223.741 496.802 225.571 495.175C227.401 493.345 228.316 491.21 228.316 488.77C228.316 484.907 226.181 481.857 221.911 479.62C217.641 477.383 211.947 475.553 204.831 474.13C197.917 472.503 190.292 470.877 181.956 469.25C173.619 467.42 165.181 465.082 156.641 462.235C148.304 459.388 140.577 455.627 133.461 450.95C126.547 446.273 120.956 440.173 116.686 432.65C112.416 424.923 110.281 415.367 110.281 403.98C110.281 390.763 113.941 378.767 121.261 367.99C128.784 357.01 139.866 348.267 154.506 341.76C169.349 335.253 187.751 332 209.711 332C224.147 332 238.381 333.525 252.411 336.575C266.441 339.625 279.047 344.302 290.231 350.605L268.576 402.76C258.002 397.473 247.734 393.508 237.771 390.865C228.011 388.222 218.454 386.9 209.101 386.9C202.187 386.9 196.697 387.51 192.631 388.73C188.564 389.95 185.616 391.577 183.786 393.61C182.159 395.643 181.346 397.88 181.346 400.32C181.346 403.98 183.481 406.928 187.751 409.165C192.021 411.198 197.612 412.927 204.526 414.35C211.642 415.773 219.369 417.298 227.706 418.925C236.246 420.552 244.684 422.788 253.021 425.635C261.357 428.482 268.982 432.243 275.896 436.92C283.012 441.597 288.706 447.697 292.976 455.22C297.246 462.743 299.381 472.097 299.381 483.28C299.381 496.293 295.619 508.29 288.096 519.27C280.776 530.047 269.796 538.79 255.156 545.5C240.516 552.007 222.114 555.26 199.951 555.26Z" fill="white"/>
<path d="M333 550.38V336.88H435.785C455.712 336.88 472.893 340.133 487.33 346.64C501.97 353.147 513.255 362.5 521.185 374.7C529.115 386.697 533.08 400.93 533.08 417.4C533.08 433.87 529.115 448.103 521.185 460.1C513.255 471.893 501.97 480.942 487.33 487.245C472.893 493.548 455.712 496.7 435.785 496.7H372.955L404.98 467.115V550.38H333ZM460.795 550.38L408.335 472.605H484.585L537.655 550.38H460.795ZM404.98 475.045L372.955 442.41H431.21C441.173 442.41 448.493 440.173 453.17 435.7C458.05 431.227 460.49 425.127 460.49 417.4C460.49 409.673 458.05 403.573 453.17 399.1C448.493 394.627 441.173 392.39 431.21 392.39H372.955L404.98 359.755V475.045Z" fill="white"/>
<path fill-rule="evenodd" clip-rule="evenodd" d="M87.3459 336.38V56.88H225.326V214.565H297.076C293.857 210.64 290.973 206.422 288.428 201.939L288.336 201.776L288.245 201.612C280.603 187.783 277.723 172.373 277.723 156.98C277.723 137.253 283.312 118.778 294.405 102.448L294.442 102.393L294.48 102.337C306.102 85.3764 322.466 73.0838 341.545 64.6042L341.622 64.5701L341.699 64.5363C361.922 55.6718 385.159 52 410.153 52C426.934 52 443.517 53.7747 459.863 57.3282C476.739 60.9967 492.503 66.7557 506.876 74.857L532.374 89.2282L500.282 166.519C509.174 173.474 516.493 182.02 522.118 191.931C529.915 205.669 532.823 221.018 532.823 236.28C532.823 256.089 526.969 274.542 515.798 290.868C509.786 299.705 502.444 307.278 494.093 313.726C496.363 314.595 498.604 315.526 500.815 316.521C520.6 325.33 537.049 338.602 548.784 356.609C560.732 374.732 566.08 395.469 566.08 417.4C566.08 439.374 560.711 460.149 548.714 478.297L548.642 478.406L548.57 478.514C545.309 483.363 541.695 487.851 537.76 491.986L600.123 583.38H443.249L437.98 575.569V583.38H300V555.425C290.94 563.61 280.406 570.228 268.905 575.499L268.732 575.578L268.558 575.656C248.41 584.611 225.073 588.26 199.951 588.26C179.535 588.26 159.621 585.937 140.281 581.22C121.45 576.627 104.342 570.288 89.8692 561.55L65 546.535L100.568 466.04C95.7255 460.902 91.5273 455.178 87.9862 448.939L87.8936 448.776L87.8029 448.612C80.1606 434.783 77.2808 419.373 77.2808 403.98C77.2808 384.253 82.8702 365.778 93.9627 349.448L94.0003 349.393L94.0381 349.337C97.2356 344.671 100.792 340.358 104.665 336.38H87.3459ZM288.706 303.38V247.565H192.326V89.88H120.346V303.38H288.706ZM307.368 286.3C311.676 288.901 316.455 291.307 321.706 293.518C325.54 295.133 329.625 296.644 333.961 298.05C335.198 298.452 336.455 298.844 337.733 299.229C341.187 300.268 344.79 301.245 348.543 302.16C351.088 302.781 353.647 303.354 356.22 303.88C370.507 306.8 385.231 308.26 400.393 308.26C403.49 308.26 406.514 308.196 409.465 308.069C419.006 307.658 427.78 306.583 435.785 304.843C436.523 304.682 437.255 304.516 437.98 304.344C438.567 304.205 439.149 304.063 439.727 303.916C445.434 302.472 450.724 300.666 455.598 298.5C470.238 291.79 481.218 283.047 488.538 272.27C496.061 261.29 499.823 249.293 499.823 236.28C499.823 225.097 497.688 215.743 493.418 208.22C491.503 204.846 489.302 201.758 486.814 198.957C483.755 195.511 480.263 192.499 476.338 189.92C470.4 185.903 463.938 182.562 456.951 179.895C455.802 179.457 454.64 179.037 453.463 178.635C445.938 176.065 438.329 173.993 430.638 172.417C430.588 172.407 430.538 172.397 430.488 172.387C429.709 172.228 428.929 172.074 428.148 171.925C421.566 170.641 415.364 169.42 409.543 168.262C409.002 168.155 408.464 168.048 407.929 167.941C406.931 167.742 405.944 167.545 404.968 167.35C403.395 167.026 401.89 166.686 400.453 166.331C395.578 165.124 391.491 163.736 388.193 162.165C383.923 159.928 381.788 156.98 381.788 153.32C381.788 150.88 382.601 148.643 384.228 146.61C386.058 144.577 389.006 142.95 393.073 141.73C394.656 141.255 396.456 140.872 398.47 140.582C398.832 140.53 399.2 140.481 399.575 140.435C402.482 140.078 405.804 139.9 409.543 139.9C409.848 139.9 410.152 139.901 410.457 139.904C410.511 139.905 410.565 139.905 410.618 139.906C410.677 139.906 410.736 139.907 410.795 139.908C418.302 140.002 425.94 140.945 433.708 142.735C433.751 142.745 433.794 142.755 433.838 142.765C435.292 143.102 436.75 143.469 438.213 143.865C440.701 144.525 443.209 145.268 445.735 146.093C451.187 147.873 456.728 150.038 462.358 152.586C464.564 153.585 466.784 154.643 469.018 155.76L490.673 103.605C482.302 98.8868 473.134 95.08 463.168 92.1846C462.135 91.8847 461.094 91.5945 460.045 91.3141C457.691 90.6852 455.293 90.1055 452.853 89.575C438.823 86.525 424.59 85 410.153 85C388.193 85 369.791 88.2533 354.948 94.76C340.308 101.267 329.226 110.01 321.703 120.99C314.383 131.767 310.723 143.763 310.723 156.98C310.723 168.367 312.858 177.923 317.128 185.65C317.812 186.856 318.53 188.025 319.283 189.157C323.224 195.092 328.098 200.023 333.903 203.95C337.265 206.159 340.762 208.164 344.396 209.965C348.455 211.976 352.684 213.733 357.083 215.235C362.155 216.926 367.191 218.437 372.192 219.769C372.375 219.818 372.559 219.867 372.742 219.915C375.976 220.768 379.194 221.547 382.398 222.25C389.053 223.549 395.255 224.847 401.003 226.146C401.136 226.176 401.268 226.206 401.4 226.236C402.577 226.502 403.735 226.769 404.874 227.036C405.008 227.068 405.14 227.099 405.273 227.13C406.129 227.301 406.964 227.478 407.778 227.661C408.984 227.932 410.145 228.216 411.261 228.512C411.595 228.601 411.925 228.691 412.251 228.782C416.217 229.89 419.584 231.17 422.353 232.62C426.623 234.857 428.758 237.907 428.758 241.77C428.758 244.21 427.843 246.345 426.013 248.175C424.183 249.802 421.235 251.123 417.168 252.14C415.601 252.47 413.784 252.733 411.715 252.929C408.683 253.216 405.113 253.36 401.003 253.36C400.678 253.36 400.353 253.359 400.028 253.356C399.72 253.354 399.413 253.35 399.105 253.345C398.993 253.343 398.882 253.341 398.77 253.339C391.59 253.207 384.26 252.44 376.781 251.038C376.556 250.996 376.332 250.953 376.107 250.91C372.245 250.167 368.344 249.256 364.403 248.175C362.803 247.703 361.221 247.212 359.658 246.702C355.657 245.398 351.777 243.972 348.02 242.424C347.955 242.397 347.891 242.371 347.826 242.344C341.747 239.829 335.987 236.995 330.548 233.84L307.368 286.3ZM437.98 336.893C437.252 336.884 436.52 336.88 435.785 336.88H333V550.38H404.98V496.7H424.587L460.795 550.38H537.655L492.82 484.673C503.346 479.316 511.914 472.356 518.523 463.793C519.449 462.594 520.336 461.363 521.185 460.1C529.115 448.103 533.08 433.87 533.08 417.4C533.08 400.93 529.115 386.697 521.185 374.7C513.255 362.5 501.97 353.147 487.33 346.64C474.683 340.94 459.929 337.737 443.069 337.03C441.393 336.96 439.697 336.914 437.98 336.893ZM404.98 442.41H431.21C433.621 442.41 435.878 442.279 437.98 442.017C441.493 441.579 444.573 440.775 447.22 439.605C449.534 438.583 451.517 437.281 453.17 435.7C458.05 431.227 460.49 425.127 460.49 417.4C460.49 409.673 458.05 403.573 453.17 399.1C449.625 395.709 444.562 393.604 437.98 392.783C437.637 392.74 437.29 392.701 436.938 392.665C435.137 392.482 433.228 392.39 431.21 392.39H404.98V442.41ZM251.504 336.38C237.768 333.46 223.837 332 209.711 332C195 332 181.886 333.46 170.368 336.38C164.693 337.819 159.406 339.612 154.506 341.76C139.866 348.267 128.784 357.01 121.261 367.99C113.941 378.767 110.281 390.763 110.281 403.98C110.281 415.367 112.416 424.923 116.686 432.65C117.37 433.856 118.088 435.025 118.84 436.157C122.782 442.092 127.655 447.023 133.461 450.95C136.822 453.159 140.32 455.164 143.954 456.965C148.013 458.976 152.242 460.733 156.641 462.235C161.713 463.926 166.749 465.437 171.75 466.769C171.933 466.818 172.116 466.867 172.3 466.915C175.534 467.768 178.752 468.547 181.956 469.25C188.611 470.549 194.813 471.847 200.561 473.146C200.693 473.176 200.826 473.206 200.958 473.236C202.135 473.503 203.293 473.769 204.432 474.036C204.565 474.068 204.698 474.099 204.831 474.13C205.687 474.301 206.522 474.478 207.336 474.661C208.542 474.932 209.703 475.216 210.819 475.512C211.153 475.601 211.483 475.691 211.808 475.782C215.774 476.89 219.142 478.17 221.911 479.62C226.181 481.857 228.316 484.907 228.316 488.77C228.316 491.21 227.401 493.345 225.571 495.175C223.741 496.802 220.793 498.123 216.726 499.14C215.159 499.47 213.341 499.733 211.273 499.929C208.241 500.216 204.67 500.36 200.561 500.36C200.236 500.36 199.911 500.359 199.586 500.356C199.278 500.354 198.971 500.35 198.663 500.345C198.551 500.343 198.439 500.341 198.328 500.339C191.148 500.207 183.818 499.44 176.339 498.038C176.114 497.996 175.889 497.953 175.665 497.91C171.803 497.167 167.902 496.256 163.961 495.175C162.36 494.703 160.779 494.212 159.216 493.702C155.214 492.398 151.335 490.972 147.578 489.424C147.513 489.397 147.449 489.371 147.384 489.344C141.305 486.829 135.545 483.995 130.106 480.84L106.926 533.3C114.38 537.8 123.244 541.717 133.518 545.05C134.756 545.452 136.013 545.844 137.291 546.229C140.745 547.268 144.348 548.245 148.101 549.16C164.774 553.227 182.058 555.26 199.951 555.26C222.114 555.26 240.516 552.007 255.156 545.5C269.796 538.79 280.776 530.047 288.096 519.27C295.619 508.29 299.381 496.293 299.381 483.28C299.381 472.097 297.246 462.743 292.976 455.22C291.061 451.846 288.86 448.758 286.372 445.957C283.313 442.511 279.821 439.499 275.896 436.92C269.958 432.903 263.496 429.562 256.508 426.895C255.36 426.457 254.198 426.037 253.021 425.635C245.495 423.065 237.887 420.993 230.196 419.417C230.146 419.407 230.096 419.397 230.046 419.387C229.267 419.228 228.487 419.074 227.706 418.925C221.124 417.641 214.922 416.42 209.101 415.262C208.56 415.155 208.022 415.048 207.487 414.941C206.489 414.742 205.502 414.545 204.526 414.35C202.952 414.026 201.448 413.686 200.011 413.331C195.136 412.124 191.049 410.736 187.751 409.165C183.481 406.928 181.346 403.98 181.346 400.32C181.346 397.88 182.159 395.643 183.786 393.61C185.616 391.577 188.564 389.95 192.631 388.73C194.214 388.255 196.013 387.872 198.028 387.582C198.39 387.53 198.758 387.481 199.133 387.435C202.039 387.078 205.362 386.9 209.101 386.9C209.405 386.9 209.71 386.901 210.015 386.904C210.069 386.905 210.122 386.905 210.176 386.906C210.235 386.906 210.294 386.907 210.353 386.908C217.86 387.002 225.498 387.945 233.266 389.735C233.309 389.745 233.352 389.755 233.396 389.765C234.849 390.102 236.308 390.469 237.771 390.865C240.259 391.525 242.767 392.268 245.293 393.093C250.745 394.873 256.286 397.038 261.916 399.586C264.122 400.585 266.342 401.643 268.576 402.76L290.231 350.605C281.86 345.887 272.691 342.08 262.725 339.185C261.693 338.885 260.652 338.595 259.603 338.314C257.248 337.685 254.851 337.106 252.411 336.575C252.109 336.509 251.806 336.444 251.504 336.38Z" fill="#C05252"/>
</svg>
